<mxfile host="app.diagrams.net" modified="2024-04-26T09:42:22.546Z" agent="Mozilla/5.0 (X11; Linux x86_64) AppleWebKit/537.36 (KHTML, like Gecko) Chrome/103.0.0.0 Safari/537.36" etag="dsqbbRcbzCDUHsoJyJmm" version="24.3.0" type="device">
  <diagram name="第 1 页" id="jbWlCtjvYqxMUS-hfzox">
    <mxGraphModel dx="1562" dy="833" grid="1" gridSize="10" guides="1" tooltips="1" connect="1" arrows="1" fold="1" page="1" pageScale="1" pageWidth="827" pageHeight="1169" math="0" shadow="0">
      <root>
        <mxCell id="0" />
        <mxCell id="1" parent="0" />
        <mxCell id="xEtLW32O7XSVn2Ofcqw5-30" value="Trace Context" style="swimlane;whiteSpace=wrap;html=1;" parent="1" vertex="1">
          <mxGeometry x="10" y="10" width="800" height="550" as="geometry" />
        </mxCell>
        <mxCell id="xEtLW32O7XSVn2Ofcqw5-7" style="edgeStyle=orthogonalEdgeStyle;rounded=0;orthogonalLoop=1;jettySize=auto;html=1;" parent="xEtLW32O7XSVn2Ofcqw5-30" source="xEtLW32O7XSVn2Ofcqw5-1" target="xEtLW32O7XSVn2Ofcqw5-2" edge="1">
          <mxGeometry relative="1" as="geometry" />
        </mxCell>
        <mxCell id="xEtLW32O7XSVn2Ofcqw5-1" value="Full Expression1&lt;div&gt;(full_expr_exec_id)&lt;/div&gt;" style="rounded=0;whiteSpace=wrap;html=1;" parent="xEtLW32O7XSVn2Ofcqw5-30" vertex="1">
          <mxGeometry x="20" y="30" width="180" height="40" as="geometry" />
        </mxCell>
        <mxCell id="xEtLW32O7XSVn2Ofcqw5-8" style="edgeStyle=orthogonalEdgeStyle;rounded=0;orthogonalLoop=1;jettySize=auto;html=1;" parent="xEtLW32O7XSVn2Ofcqw5-30" source="xEtLW32O7XSVn2Ofcqw5-2" target="xEtLW32O7XSVn2Ofcqw5-3" edge="1">
          <mxGeometry relative="1" as="geometry" />
        </mxCell>
        <mxCell id="xEtLW32O7XSVn2Ofcqw5-2" value="Full Expression2" style="rounded=0;whiteSpace=wrap;html=1;" parent="xEtLW32O7XSVn2Ofcqw5-30" vertex="1">
          <mxGeometry x="20" y="110" width="180" height="40" as="geometry" />
        </mxCell>
        <mxCell id="xEtLW32O7XSVn2Ofcqw5-9" style="edgeStyle=orthogonalEdgeStyle;rounded=0;orthogonalLoop=1;jettySize=auto;html=1;" parent="xEtLW32O7XSVn2Ofcqw5-30" source="xEtLW32O7XSVn2Ofcqw5-3" target="xEtLW32O7XSVn2Ofcqw5-4" edge="1">
          <mxGeometry relative="1" as="geometry" />
        </mxCell>
        <mxCell id="xEtLW32O7XSVn2Ofcqw5-3" value="Full Expression3" style="rounded=0;whiteSpace=wrap;html=1;" parent="xEtLW32O7XSVn2Ofcqw5-30" vertex="1">
          <mxGeometry x="20" y="180" width="180" height="40" as="geometry" />
        </mxCell>
        <mxCell id="xEtLW32O7XSVn2Ofcqw5-11" style="edgeStyle=orthogonalEdgeStyle;rounded=0;orthogonalLoop=1;jettySize=auto;html=1;" parent="xEtLW32O7XSVn2Ofcqw5-30" source="xEtLW32O7XSVn2Ofcqw5-4" target="xEtLW32O7XSVn2Ofcqw5-5" edge="1">
          <mxGeometry relative="1" as="geometry" />
        </mxCell>
        <mxCell id="xEtLW32O7XSVn2Ofcqw5-4" value="Full Expression4" style="rounded=0;whiteSpace=wrap;html=1;" parent="xEtLW32O7XSVn2Ofcqw5-30" vertex="1">
          <mxGeometry x="20" y="260" width="180" height="40" as="geometry" />
        </mxCell>
        <mxCell id="xEtLW32O7XSVn2Ofcqw5-12" style="edgeStyle=orthogonalEdgeStyle;rounded=0;orthogonalLoop=1;jettySize=auto;html=1;" parent="xEtLW32O7XSVn2Ofcqw5-30" source="xEtLW32O7XSVn2Ofcqw5-5" target="xEtLW32O7XSVn2Ofcqw5-6" edge="1">
          <mxGeometry relative="1" as="geometry" />
        </mxCell>
        <mxCell id="xEtLW32O7XSVn2Ofcqw5-5" value="Full Expression5" style="rounded=0;whiteSpace=wrap;html=1;" parent="xEtLW32O7XSVn2Ofcqw5-30" vertex="1">
          <mxGeometry x="20" y="330" width="180" height="40" as="geometry" />
        </mxCell>
        <mxCell id="xEtLW32O7XSVn2Ofcqw5-15" style="edgeStyle=orthogonalEdgeStyle;rounded=0;orthogonalLoop=1;jettySize=auto;html=1;" parent="xEtLW32O7XSVn2Ofcqw5-30" source="xEtLW32O7XSVn2Ofcqw5-6" target="xEtLW32O7XSVn2Ofcqw5-14" edge="1">
          <mxGeometry relative="1" as="geometry" />
        </mxCell>
        <mxCell id="xEtLW32O7XSVn2Ofcqw5-6" value="&lt;b&gt;&lt;font style=&quot;font-size: 20px;&quot;&gt;……&lt;/font&gt;&lt;/b&gt;" style="rounded=0;whiteSpace=wrap;html=1;" parent="xEtLW32O7XSVn2Ofcqw5-30" vertex="1">
          <mxGeometry x="20" y="410" width="180" height="40" as="geometry" />
        </mxCell>
        <mxCell id="xEtLW32O7XSVn2Ofcqw5-14" value="return/halt" style="rounded=0;whiteSpace=wrap;html=1;" parent="xEtLW32O7XSVn2Ofcqw5-30" vertex="1">
          <mxGeometry x="20" y="480" width="180" height="40" as="geometry" />
        </mxCell>
        <mxCell id="xEtLW32O7XSVn2Ofcqw5-16" value="" style="strokeWidth=2;html=1;shape=mxgraph.flowchart.annotation_2;align=left;labelPosition=right;pointerEvents=1;" parent="xEtLW32O7XSVn2Ofcqw5-30" vertex="1">
          <mxGeometry x="200" y="50" width="50" height="160" as="geometry" />
        </mxCell>
        <mxCell id="xEtLW32O7XSVn2Ofcqw5-17" value="read0" style="ellipse;whiteSpace=wrap;html=1;aspect=fixed;fillColor=#60a917;strokeColor=#2D7600;fontColor=#ffffff;" parent="xEtLW32O7XSVn2Ofcqw5-30" vertex="1">
          <mxGeometry x="280" y="50" width="40" height="40" as="geometry" />
        </mxCell>
        <mxCell id="xEtLW32O7XSVn2Ofcqw5-20" value="call1" style="ellipse;whiteSpace=wrap;html=1;aspect=fixed;fillColor=#1ba1e2;fontColor=#ffffff;strokeColor=#006EAF;" parent="xEtLW32O7XSVn2Ofcqw5-30" vertex="1">
          <mxGeometry x="450" y="50" width="40" height="40" as="geometry" />
        </mxCell>
        <mxCell id="xEtLW32O7XSVn2Ofcqw5-21" value="del4" style="ellipse;whiteSpace=wrap;html=1;aspect=fixed;fillColor=#60a917;strokeColor=#2D7600;fontColor=#ffffff;" parent="xEtLW32O7XSVn2Ofcqw5-30" vertex="1">
          <mxGeometry x="400" y="110" width="40" height="40" as="geometry" />
        </mxCell>
        <mxCell id="xEtLW32O7XSVn2Ofcqw5-23" value="read2" style="ellipse;whiteSpace=wrap;html=1;aspect=fixed;fillColor=#60a917;strokeColor=#2D7600;fontColor=#ffffff;" parent="xEtLW32O7XSVn2Ofcqw5-30" vertex="1">
          <mxGeometry x="280" y="110" width="40" height="40" as="geometry" />
        </mxCell>
        <mxCell id="xEtLW32O7XSVn2Ofcqw5-24" value="read6" style="ellipse;whiteSpace=wrap;html=1;aspect=fixed;fillColor=#60a917;strokeColor=#2D7600;fontColor=#ffffff;" parent="xEtLW32O7XSVn2Ofcqw5-30" vertex="1">
          <mxGeometry x="280" y="170" width="40" height="40" as="geometry" />
        </mxCell>
        <mxCell id="xEtLW32O7XSVn2Ofcqw5-25" value="write3" style="ellipse;whiteSpace=wrap;html=1;aspect=fixed;fillColor=#60a917;strokeColor=#2D7600;fontColor=#ffffff;" parent="xEtLW32O7XSVn2Ofcqw5-30" vertex="1">
          <mxGeometry x="340" y="110" width="40" height="40" as="geometry" />
        </mxCell>
        <mxCell id="xEtLW32O7XSVn2Ofcqw5-27" value="call7" style="ellipse;whiteSpace=wrap;html=1;aspect=fixed;fillColor=#1ba1e2;fontColor=#ffffff;strokeColor=#006EAF;" parent="xEtLW32O7XSVn2Ofcqw5-30" vertex="1">
          <mxGeometry x="450" y="170" width="40" height="40" as="geometry" />
        </mxCell>
        <mxCell id="xEtLW32O7XSVn2Ofcqw5-31" value="" style="endArrow=classic;html=1;rounded=0;" parent="xEtLW32O7XSVn2Ofcqw5-30" source="xEtLW32O7XSVn2Ofcqw5-17" target="xEtLW32O7XSVn2Ofcqw5-25" edge="1">
          <mxGeometry width="50" height="50" relative="1" as="geometry">
            <mxPoint x="380" y="300" as="sourcePoint" />
            <mxPoint x="430" y="250" as="targetPoint" />
          </mxGeometry>
        </mxCell>
        <mxCell id="BuQnypfVv4W7Jceqz39m-23" value="Sequence Before" style="edgeLabel;html=1;align=center;verticalAlign=middle;resizable=0;points=[];" parent="xEtLW32O7XSVn2Ofcqw5-31" vertex="1" connectable="0">
          <mxGeometry x="-0.2901" y="-1" relative="1" as="geometry">
            <mxPoint x="15" y="4" as="offset" />
          </mxGeometry>
        </mxCell>
        <mxCell id="xEtLW32O7XSVn2Ofcqw5-32" value="" style="endArrow=classic;html=1;rounded=0;" parent="xEtLW32O7XSVn2Ofcqw5-30" source="xEtLW32O7XSVn2Ofcqw5-23" target="xEtLW32O7XSVn2Ofcqw5-25" edge="1">
          <mxGeometry width="50" height="50" relative="1" as="geometry">
            <mxPoint x="324" y="94" as="sourcePoint" />
            <mxPoint x="356" y="126" as="targetPoint" />
          </mxGeometry>
        </mxCell>
        <mxCell id="xEtLW32O7XSVn2Ofcqw5-33" value="" style="endArrow=classic;html=1;rounded=0;" parent="xEtLW32O7XSVn2Ofcqw5-30" source="xEtLW32O7XSVn2Ofcqw5-24" target="xEtLW32O7XSVn2Ofcqw5-25" edge="1">
          <mxGeometry width="50" height="50" relative="1" as="geometry">
            <mxPoint x="324" y="94" as="sourcePoint" />
            <mxPoint x="356" y="126" as="targetPoint" />
          </mxGeometry>
        </mxCell>
        <mxCell id="xEtLW32O7XSVn2Ofcqw5-34" value="" style="endArrow=classic;html=1;rounded=0;" parent="xEtLW32O7XSVn2Ofcqw5-30" source="xEtLW32O7XSVn2Ofcqw5-25" target="xEtLW32O7XSVn2Ofcqw5-21" edge="1">
          <mxGeometry width="50" height="50" relative="1" as="geometry">
            <mxPoint x="330" y="140" as="sourcePoint" />
            <mxPoint x="350" y="140" as="targetPoint" />
          </mxGeometry>
        </mxCell>
        <mxCell id="xEtLW32O7XSVn2Ofcqw5-35" value="" style="endArrow=classic;html=1;rounded=0;" parent="xEtLW32O7XSVn2Ofcqw5-30" source="xEtLW32O7XSVn2Ofcqw5-21" target="xEtLW32O7XSVn2Ofcqw5-20" edge="1">
          <mxGeometry width="50" height="50" relative="1" as="geometry">
            <mxPoint x="324" y="186" as="sourcePoint" />
            <mxPoint x="356" y="154" as="targetPoint" />
          </mxGeometry>
        </mxCell>
        <mxCell id="xEtLW32O7XSVn2Ofcqw5-36" value="" style="endArrow=classic;html=1;rounded=0;" parent="xEtLW32O7XSVn2Ofcqw5-30" source="xEtLW32O7XSVn2Ofcqw5-21" target="xEtLW32O7XSVn2Ofcqw5-27" edge="1">
          <mxGeometry width="50" height="50" relative="1" as="geometry">
            <mxPoint x="324" y="186" as="sourcePoint" />
            <mxPoint x="356" y="154" as="targetPoint" />
          </mxGeometry>
        </mxCell>
        <mxCell id="xEtLW32O7XSVn2Ofcqw5-37" value="Trace Context" style="swimlane;whiteSpace=wrap;html=1;startSize=23;" parent="xEtLW32O7XSVn2Ofcqw5-30" vertex="1">
          <mxGeometry x="530" y="40" width="110" height="70" as="geometry" />
        </mxCell>
        <mxCell id="xEtLW32O7XSVn2Ofcqw5-38" value="sub context" style="text;html=1;align=center;verticalAlign=middle;whiteSpace=wrap;rounded=0;" parent="xEtLW32O7XSVn2Ofcqw5-37" vertex="1">
          <mxGeometry y="30" width="80" height="30" as="geometry" />
        </mxCell>
        <mxCell id="xEtLW32O7XSVn2Ofcqw5-39" value="Trace Context" style="swimlane;whiteSpace=wrap;html=1;startSize=23;" parent="xEtLW32O7XSVn2Ofcqw5-30" vertex="1">
          <mxGeometry x="520" y="220" width="110" height="80" as="geometry" />
        </mxCell>
        <mxCell id="xEtLW32O7XSVn2Ofcqw5-40" value="sub context" style="text;html=1;align=center;verticalAlign=middle;whiteSpace=wrap;rounded=0;" parent="xEtLW32O7XSVn2Ofcqw5-39" vertex="1">
          <mxGeometry x="5" y="30" width="80" height="30" as="geometry" />
        </mxCell>
        <mxCell id="xEtLW32O7XSVn2Ofcqw5-41" value="" style="endArrow=classic;html=1;rounded=0;" parent="xEtLW32O7XSVn2Ofcqw5-30" source="xEtLW32O7XSVn2Ofcqw5-20" target="xEtLW32O7XSVn2Ofcqw5-37" edge="1">
          <mxGeometry width="50" height="50" relative="1" as="geometry">
            <mxPoint x="443" y="125" as="sourcePoint" />
            <mxPoint x="467" y="95" as="targetPoint" />
          </mxGeometry>
        </mxCell>
        <mxCell id="xEtLW32O7XSVn2Ofcqw5-43" value="" style="endArrow=classic;html=1;rounded=0;" parent="xEtLW32O7XSVn2Ofcqw5-30" source="xEtLW32O7XSVn2Ofcqw5-27" target="xEtLW32O7XSVn2Ofcqw5-39" edge="1">
          <mxGeometry width="50" height="50" relative="1" as="geometry">
            <mxPoint x="500" y="82" as="sourcePoint" />
            <mxPoint x="540" y="85" as="targetPoint" />
          </mxGeometry>
        </mxCell>
        <mxCell id="xEtLW32O7XSVn2Ofcqw5-44" value="read5" style="ellipse;whiteSpace=wrap;html=1;aspect=fixed;fillColor=#60a917;strokeColor=#2D7600;fontColor=#ffffff;" parent="xEtLW32O7XSVn2Ofcqw5-30" vertex="1">
          <mxGeometry x="650" y="110" width="40" height="40" as="geometry" />
        </mxCell>
        <mxCell id="xEtLW32O7XSVn2Ofcqw5-45" value="" style="endArrow=classic;html=1;rounded=0;" parent="xEtLW32O7XSVn2Ofcqw5-30" source="xEtLW32O7XSVn2Ofcqw5-27" target="xEtLW32O7XSVn2Ofcqw5-44" edge="1">
          <mxGeometry width="50" height="50" relative="1" as="geometry">
            <mxPoint x="443" y="155" as="sourcePoint" />
            <mxPoint x="467" y="185" as="targetPoint" />
          </mxGeometry>
        </mxCell>
        <mxCell id="xEtLW32O7XSVn2Ofcqw5-46" value="" style="endArrow=classic;html=1;rounded=0;" parent="xEtLW32O7XSVn2Ofcqw5-30" source="xEtLW32O7XSVn2Ofcqw5-39" target="xEtLW32O7XSVn2Ofcqw5-44" edge="1">
          <mxGeometry width="50" height="50" relative="1" as="geometry">
            <mxPoint x="380" y="300" as="sourcePoint" />
            <mxPoint x="430" y="250" as="targetPoint" />
          </mxGeometry>
        </mxCell>
        <mxCell id="BuQnypfVv4W7Jceqz39m-1" value="" style="strokeWidth=2;html=1;shape=mxgraph.flowchart.annotation_2;align=left;labelPosition=right;pointerEvents=1;" parent="xEtLW32O7XSVn2Ofcqw5-30" vertex="1">
          <mxGeometry x="200" y="325" width="50" height="50" as="geometry" />
        </mxCell>
        <mxCell id="BuQnypfVv4W7Jceqz39m-9" value="call0" style="ellipse;whiteSpace=wrap;html=1;aspect=fixed;fillColor=#1ba1e2;fontColor=#ffffff;strokeColor=#006EAF;" parent="xEtLW32O7XSVn2Ofcqw5-30" vertex="1">
          <mxGeometry x="250" y="330" width="40" height="40" as="geometry" />
        </mxCell>
        <mxCell id="BuQnypfVv4W7Jceqz39m-10" value="Trace Context" style="swimlane;whiteSpace=wrap;html=1;startSize=23;" parent="xEtLW32O7XSVn2Ofcqw5-30" vertex="1">
          <mxGeometry x="330" y="315" width="450" height="195" as="geometry" />
        </mxCell>
        <mxCell id="BuQnypfVv4W7Jceqz39m-13" value="Full Expression1" style="rounded=0;whiteSpace=wrap;html=1;" parent="BuQnypfVv4W7Jceqz39m-10" vertex="1">
          <mxGeometry x="10" y="61.25" width="70" height="35" as="geometry" />
        </mxCell>
        <mxCell id="BuQnypfVv4W7Jceqz39m-14" value="" style="strokeWidth=2;html=1;shape=mxgraph.flowchart.annotation_2;align=left;labelPosition=right;pointerEvents=1;" parent="BuQnypfVv4W7Jceqz39m-10" vertex="1">
          <mxGeometry x="80" y="27.5" width="50" height="102.5" as="geometry" />
        </mxCell>
        <mxCell id="BuQnypfVv4W7Jceqz39m-15" value="call0" style="ellipse;whiteSpace=wrap;html=1;aspect=fixed;fillColor=#6a00ff;fontColor=#ffffff;strokeColor=#3700CC;" parent="BuQnypfVv4W7Jceqz39m-10" vertex="1">
          <mxGeometry x="130" y="32.5" width="40" height="40" as="geometry" />
        </mxCell>
        <mxCell id="BuQnypfVv4W7Jceqz39m-16" value="read1" style="ellipse;whiteSpace=wrap;html=1;aspect=fixed;fillColor=#60a917;fontColor=#ffffff;strokeColor=#2D7600;" parent="BuQnypfVv4W7Jceqz39m-10" vertex="1">
          <mxGeometry x="130" y="85" width="40" height="40" as="geometry" />
        </mxCell>
        <mxCell id="BuQnypfVv4W7Jceqz39m-17" value="Trace Context" style="swimlane;whiteSpace=wrap;html=1;startSize=23;" parent="BuQnypfVv4W7Jceqz39m-10" vertex="1">
          <mxGeometry x="260" y="27.5" width="180" height="152.5" as="geometry" />
        </mxCell>
        <mxCell id="BuQnypfVv4W7Jceqz39m-24" value="Full Expression1" style="rounded=0;whiteSpace=wrap;html=1;" parent="BuQnypfVv4W7Jceqz39m-17" vertex="1">
          <mxGeometry x="10" y="68.75" width="70" height="35" as="geometry" />
        </mxCell>
        <mxCell id="BuQnypfVv4W7Jceqz39m-25" value="" style="strokeWidth=2;html=1;shape=mxgraph.flowchart.annotation_2;align=left;labelPosition=right;pointerEvents=1;" parent="BuQnypfVv4W7Jceqz39m-17" vertex="1">
          <mxGeometry x="80" y="62.5" width="50" height="47.5" as="geometry" />
        </mxCell>
        <mxCell id="BuQnypfVv4W7Jceqz39m-27" value="write0" style="ellipse;whiteSpace=wrap;html=1;aspect=fixed;fillColor=#60a917;fontColor=#ffffff;strokeColor=#2D7600;" parent="BuQnypfVv4W7Jceqz39m-17" vertex="1">
          <mxGeometry x="120" y="63.75" width="40" height="40" as="geometry" />
        </mxCell>
        <mxCell id="BuQnypfVv4W7Jceqz39m-21" value="" style="endArrow=classic;html=1;rounded=0;" parent="BuQnypfVv4W7Jceqz39m-10" source="BuQnypfVv4W7Jceqz39m-15" target="BuQnypfVv4W7Jceqz39m-17" edge="1">
          <mxGeometry width="50" height="50" relative="1" as="geometry">
            <mxPoint x="169" y="-121" as="sourcePoint" />
            <mxPoint x="331" y="-169" as="targetPoint" />
          </mxGeometry>
        </mxCell>
        <mxCell id="BuQnypfVv4W7Jceqz39m-12" value="" style="endArrow=classic;html=1;rounded=0;" parent="xEtLW32O7XSVn2Ofcqw5-30" source="BuQnypfVv4W7Jceqz39m-9" target="BuQnypfVv4W7Jceqz39m-10" edge="1">
          <mxGeometry width="50" height="50" relative="1" as="geometry">
            <mxPoint x="324" y="186" as="sourcePoint" />
            <mxPoint x="356" y="154" as="targetPoint" />
          </mxGeometry>
        </mxCell>
        <mxCell id="nJjZ6P_NoecyPgkFW21r-2" value="event + inner_id" style="text;html=1;align=center;verticalAlign=middle;whiteSpace=wrap;rounded=0;" vertex="1" parent="xEtLW32O7XSVn2Ofcqw5-30">
          <mxGeometry x="240" y="30" width="120" height="30" as="geometry" />
        </mxCell>
      </root>
    </mxGraphModel>
  </diagram>
</mxfile>
